<svg width="255" height="150" viewBox="0 0 255 150" fill="none" xmlns="http://www.w3.org/2000/svg">
<path d="M122.1 92.5947V17.5117L187.125 55.0513V130.134L122.1 92.5947Z" fill="#C9BFFC" stroke="#1F1F1F" stroke-width="1.2" stroke-linejoin="round"/>
<path d="M122.101 92.593L135.105 85.082L200.129 122.625L187.126 130.133L122.101 92.593Z" fill="#F6F6F6" stroke="#1F1F1F" stroke-width="1.2" stroke-linejoin="round"/>
<path d="M122.102 17.5109V92.5939L135.105 85.0829V10L122.102 17.5109Z" fill="#1F1F1F" stroke="#1F1F1F" stroke-width="1.2" stroke-linejoin="round"/>
<path d="M187.126 55.0505L200.129 47.5433L135.105 10L122.101 17.5109L187.126 55.0505Z" fill="#F6F6F6" stroke="#1F1F1F" stroke-width="1.2" stroke-linejoin="round"/>
<path d="M200.129 122.626V47.543L187.126 55.0501V130.133L200.129 122.626Z" fill="#1F1F1F" stroke="#1F1F1F" stroke-width="1.2" stroke-linejoin="round"/>
<path d="M145.801 44.4093L128.636 34.5V54.3211L145.801 64.233V44.4093Z" fill="#C9BFFC" stroke="#1F1F1F" stroke-width="1.2" stroke-linejoin="round"/>
<path d="M134.745 30.8555L128.636 34.4998L145.801 44.4091L152.023 40.7004L134.745 30.8555Z" fill="#F6F6F6" stroke="#1F1F1F" stroke-width="1.2" stroke-linejoin="round"/>
<path d="M152.03 60.5385L145.8 64.2308V44.4072L152.03 40.7148V60.5385Z" fill="#1F1F1F" stroke="#1F1F1F" stroke-width="1.2" stroke-linejoin="round"/>
<path d="M169.501 27.6548V73.8216L159.504 68.0515V21.9609L169.501 27.6548Z" fill="#C9BFFC" stroke="#1F1F1F" stroke-width="1.2" stroke-linejoin="round"/>
<path d="M164.512 19.0742L159.515 21.9607L169.506 27.653L174.498 24.7694L164.512 19.0742Z" fill="#F6F6F6" stroke="#1F1F1F" stroke-width="1.2" stroke-linejoin="round"/>
<path d="M174.498 70.9363L169.503 73.8199V27.6532L174.498 24.7695V70.9363Z" fill="#1F1F1F" stroke="#1F1F1F" stroke-width="1.2" stroke-linejoin="round"/>
<path d="M72.7076 70.9763V99.512L48 85.2477V57.0898L72.7076 70.9763Z" fill="#C9BFFC" stroke="#1F1F1F" stroke-width="1.2" stroke-linejoin="round"/>
<path d="M60.3543 49.7773L48.0005 56.9059L72.7081 70.9777L85.0548 63.8492L60.3543 49.7773Z" fill="#F6F6F6" stroke="#1F1F1F" stroke-width="1.2" stroke-linejoin="round"/>
<path d="M85.0548 92.3762L72.7081 99.5119V70.9762L85.0548 63.8477V92.3762Z" fill="#1F1F1F" stroke="#1F1F1F" stroke-width="1.2" stroke-linejoin="round"/>
<path d="M199.944 95.2687L199.941 108.819L176.476 95.2687V81.7188L199.944 95.2687Z" fill="#C9BFFC" stroke="#1F1F1F" stroke-width="1.2" stroke-linejoin="round"/>
<path d="M182.343 78.332L176.477 81.717L199.944 95.267L205.963 91.7906L182.343 78.332Z" fill="#F6F6F6" stroke="#1F1F1F" stroke-width="1.2" stroke-linejoin="round"/>
<path d="M205.963 105.339L199.941 108.815L199.944 95.2654L205.963 91.7891V105.339Z" fill="#1F1F1F" stroke="#1F1F1F" stroke-width="1.2" stroke-linejoin="round"/>
<path d="M139.398 88.9102V133.058L152.028 140.35L151.86 96.2998L139.398 88.9102Z" fill="#C9BFFC" stroke="#1F1F1F" stroke-width="1.2" stroke-linejoin="round"/>
<path d="M164.661 88.9102L151.861 96.2998L152.028 140.35L164.661 133.058V88.9102Z" fill="#1F1F1F" stroke="#1F1F1F" stroke-width="1.2" stroke-linejoin="round"/>
<path d="M151.86 81.7188L139.398 88.9116L151.86 96.3012L164.661 88.9116L151.86 81.7188Z" fill="#F6F6F6" stroke="#1F1F1F" stroke-width="1.2" stroke-linejoin="round"/>
</svg>
