<svg width="255" height="150" viewBox="0 0 255 150" fill="none" xmlns="http://www.w3.org/2000/svg">
<path d="M128.042 109.74L138.547 103.672L191.082 134.004L180.576 140.069L128.042 109.74Z" fill="#F6F6F6" stroke="#1F1F1F" stroke-width="1.2" stroke-linejoin="round"/>
<path d="M128.041 49.0799V109.74L138.547 103.672V43.0117L128.041 49.0799Z" fill="#F6F6F6" stroke="#1F1F1F" stroke-width="1.2" stroke-linejoin="round"/>
<path d="M128.042 109.743V49.082L180.576 79.4108V140.071L128.042 109.743Z" fill="#C9BFFC" stroke="#1F1F1F" stroke-width="1.2" stroke-linejoin="round"/>
<path d="M191.082 134V73.3398L180.576 79.405V140.066L191.082 134Z" fill="#1F1F1F" stroke="#1F1F1F" stroke-width="1.2" stroke-linejoin="round"/>
<path d="M180.576 79.4087L191.082 73.3435L138.547 43.0117L128.042 49.0799L180.576 79.4087Z" fill="#F6F6F6" stroke="#1F1F1F" stroke-width="1.2" stroke-linejoin="round"/>
<path d="M128.04 109.931L117.535 103.863L65.0002 134.195L75.5059 140.26L128.04 109.931Z" fill="#F6F6F6" stroke="#1F1F1F" stroke-width="1.2" stroke-linejoin="round"/>
<path d="M128.041 49.2713V109.932L117.535 103.864V43.2031L128.041 49.2713Z" fill="#F6F6F6" stroke="#1F1F1F" stroke-width="1.2" stroke-linejoin="round"/>
<path d="M128.04 109.934V49.2734L75.5052 79.6022V140.263L128.04 109.934Z" fill="#C9BFFC" stroke="#1F1F1F" stroke-width="1.2" stroke-linejoin="round"/>
<path d="M65 134.192V73.5312L75.5057 79.5964V140.257L65 134.192Z" fill="#1F1F1F" stroke="#1F1F1F" stroke-width="1.2" stroke-linejoin="round"/>
<path d="M75.5057 79.6001L65 73.5349L117.534 43.2031L128.04 49.2713L75.5057 79.6001Z" fill="#F6F6F6" stroke="#1F1F1F" stroke-width="1.2" stroke-linejoin="round"/>
<path d="M121.211 78.6328L104.499 88.3261" stroke="#1F1F1F" stroke-width="1.13529" stroke-linecap="round" stroke-linejoin="round"/>
<path d="M121.211 83.5352L104.499 93.2285" stroke="#1F1F1F" stroke-width="1.13529" stroke-linecap="round" stroke-linejoin="round"/>
<path d="M121.211 88.4336L104.499 98.1269" stroke="#1F1F1F" stroke-width="1.13529" stroke-linecap="round" stroke-linejoin="round"/>
<path d="M122.754 104.853L122.753 99.2969L116.925 102.639V108.256L122.754 104.853Z" fill="#1F1F1F" stroke="#1F1F1F" stroke-width="1.47587" stroke-linejoin="round"/>
<path d="M111.167 112.173L111.167 106.617L105.339 109.959V115.576L111.167 112.173Z" fill="#1F1F1F" stroke="#1F1F1F" stroke-width="1.47587" stroke-linejoin="round"/>
<path d="M99.5809 118.904L99.5809 113.348L93.7521 116.69V122.307L99.5809 118.904Z" fill="#1F1F1F" stroke="#1F1F1F" stroke-width="1.47587" stroke-linejoin="round"/>
<path d="M87.9946 125.634L87.9946 120.078L82.1658 123.42V129.037L87.9946 125.634Z" fill="#1F1F1F" stroke="#1F1F1F" stroke-width="1.47587" stroke-linejoin="round"/>
<path d="M121.211 66.2263V60.6445L101.612 72.109V77.6908L121.211 66.2263Z" fill="#1F1F1F" stroke="#1F1F1F" stroke-width="1.47587" stroke-linejoin="round"/>
<path d="M119.839 63.7969L117.97 66.6396L116.482 65.4702" stroke="#F6F6F6" stroke-linecap="round" stroke-linejoin="round"/>
<path d="M97.3395 104.797L97.3395 86.3711L82.6556 94.812V113.349L97.3395 104.797Z" fill="#1F1F1F" stroke="#1F1F1F" stroke-width="1.47587" stroke-linejoin="round"/>
<path d="M93.5214 100.669C94.5393 100.843 95.6133 102.602 95.9662 103.774L84.1442 110.752L84.1442 106.848C84.1442 104.652 83.9457 102.069 85.2998 101.544C86.9504 100.904 89.2262 105.235 91.1404 102.559C91.9549 101.42 91.529 102.005 91.9695 101.432C92.5744 100.646 92.7594 100.539 93.5214 100.669Z" fill="#F6F6F6" stroke="#F6F6F6" stroke-width="0.90823" stroke-linecap="round" stroke-linejoin="round"/>
<ellipse cx="1.67214" cy="2.99154" rx="1.67214" ry="2.99154" transform="matrix(-0.976656 -0.214811 -0.214811 0.976656 96.0277 91.1758)" fill="#F6F6F6"/>
<path d="M163.56 92.1367L169.929 103.483L162.462 106.85" stroke="#1F1F1F" stroke-width="2.5" stroke-linecap="round" stroke-linejoin="round"/>
<path d="M144.239 83.7187L138.691 90.5282L145.147 99.7458" stroke="#1F1F1F" stroke-width="2.5" stroke-linecap="round" stroke-linejoin="round"/>
<path d="M150.528 81.8672L157.082 110.058" stroke="#1F1F1F" stroke-width="2.5" stroke-linecap="round" stroke-linejoin="round"/>
<mask id="path-26-inside-1_1753_25464" fill="white">
<path fill-rule="evenodd" clip-rule="evenodd" d="M209.649 18.1586C208.462 15.6115 206.492 13.3991 204.056 11.9379C199.184 9.01471 190.342 9.10761 189.648 14.3151C189.426 15.9773 190.141 17.9012 191.365 19.8382C190.902 20.6393 190.613 21.6544 190.553 22.8511C190.366 26.5408 192.438 30.7742 195.454 32.8636L209.885 42.863C212.058 44.3687 214.339 44.6049 216.012 43.4977L217.912 42.2411C221.531 39.8465 220.188 32.8551 216.587 29.1651C216.627 28.9658 216.661 28.7611 216.689 28.5515C217.165 24.9811 216.227 21.2201 212.44 18.9481C211.5 18.3844 210.547 18.141 209.649 18.1586Z"/>
</mask>
<path fill-rule="evenodd" clip-rule="evenodd" d="M209.649 18.1586C208.462 15.6115 206.492 13.3991 204.056 11.9379C199.184 9.01471 190.342 9.10761 189.648 14.3151C189.426 15.9773 190.141 17.9012 191.365 19.8382C190.902 20.6393 190.613 21.6544 190.553 22.8511C190.366 26.5408 192.438 30.7742 195.454 32.8636L209.885 42.863C212.058 44.3687 214.339 44.6049 216.012 43.4977L217.912 42.2411C221.531 39.8465 220.188 32.8551 216.587 29.1651C216.627 28.9658 216.661 28.7611 216.689 28.5515C217.165 24.9811 216.227 21.2201 212.44 18.9481C211.5 18.3844 210.547 18.141 209.649 18.1586Z" fill="#1F1F1F"/>
<path d="M209.649 18.1586L208.798 18.5383L209.252 19.5133L209.997 19.4986L209.649 18.1586ZM191.365 19.8382L192.27 20.8387L192.67 20.1449L192.086 19.22L191.365 19.8382ZM190.553 22.8511L191.592 23.3559L190.553 22.8511ZM195.454 32.8636L195.22 34.0045L195.454 32.8636ZM209.885 42.863L209.651 44.0039L209.885 42.863ZM216.012 43.4977L216.7 44.7341L216.7 44.7341L216.012 43.4977ZM217.912 42.2411L217.224 41.0047L217.224 41.0047L217.912 42.2411ZM216.587 29.1651L215.571 28.4672L215.392 29.3617L216.119 30.107L216.587 29.1651ZM210.501 17.779C209.124 14.8242 206.88 12.3474 204.215 10.7485L203.898 13.1274C206.103 14.4508 207.801 16.3988 208.798 18.5383L210.501 17.779ZM204.215 10.7485C201.535 9.14062 197.907 8.41944 194.878 8.74121C193.352 8.90336 191.92 9.33536 190.808 10.1069C189.7 10.8753 188.841 12.0299 188.619 13.6977L190.677 14.9325C190.802 13.9965 191.309 13.1868 192.206 12.5645C193.099 11.9453 194.313 11.5604 195.693 11.4138C198.476 11.118 201.705 11.812 203.898 13.1274L204.215 10.7485ZM188.619 13.6977C188.323 15.9157 189.306 18.3385 190.643 20.4565L192.086 19.22C190.977 17.4639 190.529 16.0389 190.677 14.9325L188.619 13.6977ZM190.459 18.8378C189.92 19.7723 189.584 20.9558 189.514 22.3464L191.592 23.3559C191.643 22.353 191.884 21.5063 192.27 20.8387L190.459 18.8378ZM189.514 22.3464C189.296 26.6424 191.709 31.5718 195.22 34.0045L195.687 31.7226C193.168 29.9767 191.436 26.4391 191.592 23.3559L189.514 22.3464ZM195.22 34.0045L209.651 44.0039L210.118 41.722L195.687 31.7226L195.22 34.0045ZM209.651 44.0039C212.151 45.7361 214.775 46.0079 216.7 44.7341L215.324 42.2613C213.902 43.202 211.965 43.0012 210.118 41.722L209.651 44.0039ZM216.7 44.7341L218.6 43.4776L217.224 41.0047L215.324 42.2613L216.7 44.7341ZM218.6 43.4776C222.85 40.6659 221.221 32.4927 217.054 28.2232L216.119 30.107C219.155 33.2175 220.213 39.0271 217.224 41.0047L218.6 43.4776ZM215.66 27.9341C215.635 28.1167 215.606 28.2945 215.571 28.4672L217.603 29.863C217.648 29.6371 217.686 29.4056 217.718 29.1689L215.66 27.9341ZM212.281 20.1375C213.921 21.1212 214.793 22.3189 215.256 23.5124C215.746 24.7763 215.879 26.2932 215.66 27.9341L217.718 29.1689C217.975 27.2394 217.876 25.0906 217.07 23.0134C216.236 20.8658 214.746 19.0469 212.598 17.7586L212.281 20.1375ZM209.997 19.4986C210.757 19.4837 211.536 19.6903 212.281 20.1375L212.598 17.7586C211.465 17.0786 210.338 16.7983 209.302 16.8186L209.997 19.4986Z" fill="#1F1F1F" mask="url(#path-26-inside-1_1753_25464)"/>
<mask id="path-28-inside-2_1753_25464" fill="white">
<path fill-rule="evenodd" clip-rule="evenodd" d="M204.721 20.4662C203.662 16.863 201.305 13.4627 198.332 11.6786C193.827 8.97568 189.612 11.006 188.918 16.2135C188.895 16.3818 188.877 16.5513 188.862 16.7219C186.124 15.5334 183.702 16.951 183.273 20.1673C182.805 23.6762 184.887 27.9972 187.922 29.8185L210.292 43.2402C213.327 45.0615 216.167 43.6934 216.635 40.1845C217.086 36.8024 215.169 32.6658 212.311 30.7404C212.312 30.7375 212.312 30.7345 212.312 30.7316C212.773 27.2786 210.724 23.0264 207.737 21.2341C206.675 20.597 205.638 20.3565 204.721 20.4662Z"/>
</mask>
<path fill-rule="evenodd" clip-rule="evenodd" d="M204.721 20.4662C203.662 16.863 201.305 13.4627 198.332 11.6786C193.827 8.97568 189.612 11.006 188.918 16.2135C188.895 16.3818 188.877 16.5513 188.862 16.7219C186.124 15.5334 183.702 16.951 183.273 20.1673C182.805 23.6762 184.887 27.9972 187.922 29.8185L210.292 43.2402C213.327 45.0615 216.167 43.6934 216.635 40.1845C217.086 36.8024 215.169 32.6658 212.311 30.7404C212.312 30.7375 212.312 30.7345 212.312 30.7316C212.773 27.2786 210.724 23.0264 207.737 21.2341C206.675 20.597 205.638 20.3565 204.721 20.4662Z" fill="#C9BFFC"/>
<path d="M204.721 20.4662L203.757 20.5484L204.16 21.9184L205.137 21.8015L204.721 20.4662ZM188.862 16.7219L188.844 17.9836L189.802 18.3995L189.898 17.2762L188.862 16.7219ZM187.922 29.8185L187.764 31.008L187.922 29.8185ZM210.292 43.2402L210.45 42.0508L210.292 43.2402ZM212.311 30.7404L211.282 30.123L211.133 31.2448L212.093 31.8917L212.311 30.7404ZM205.685 20.384C204.494 16.3304 201.84 12.499 198.49 10.4891L198.173 12.8681C200.77 14.4264 202.83 17.3957 203.757 20.5484L205.685 20.384ZM198.49 10.4891C193.417 7.44522 188.671 9.73169 187.889 15.5961L189.947 16.8309C190.554 12.2803 194.237 10.5061 198.173 12.8681L198.49 10.4891ZM187.889 15.5961C187.864 15.7851 187.843 15.9757 187.826 16.1676L189.898 17.2762C189.911 17.1268 189.927 16.9784 189.947 16.8309L187.889 15.5961ZM188.881 15.4601C185.629 14.0487 182.753 15.7305 182.244 19.5499L184.302 20.7847C184.65 18.1716 186.619 17.0181 188.844 17.9836L188.881 15.4601ZM182.244 19.5499C181.689 23.7158 184.16 28.8457 187.764 31.008L188.081 28.629C185.614 27.1487 183.922 23.6367 184.302 20.7847L182.244 19.5499ZM187.764 31.008L210.133 44.4297L210.45 42.0508L188.081 28.629L187.764 31.008ZM210.133 44.4297C213.737 46.592 217.109 44.9678 217.664 40.8019L215.606 39.5671C215.226 42.4191 212.918 43.5311 210.45 42.0508L210.133 44.4297ZM217.664 40.8019C218.2 36.7862 215.923 31.8756 212.53 29.5891L212.093 31.8917C214.414 33.456 215.973 36.8186 215.606 39.5671L217.664 40.8019ZM211.283 30.1142C211.283 30.1148 211.283 30.1155 211.283 30.1171C211.283 30.1184 211.283 30.1206 211.282 30.123L213.34 31.3578C213.34 31.3572 213.34 31.3565 213.341 31.3549C213.341 31.3536 213.341 31.3514 213.341 31.349L211.283 30.1142ZM207.579 22.4236C209.998 23.8749 211.656 27.3181 211.283 30.1142L213.341 31.349C213.889 27.239 211.451 22.1779 207.896 20.0446L207.579 22.4236ZM205.137 21.8015C205.879 21.7127 206.717 21.9067 207.579 22.4236L207.896 20.0446C206.634 19.2873 205.397 19.0002 204.305 19.1309L205.137 21.8015Z" fill="#1F1F1F" mask="url(#path-28-inside-2_1753_25464)"/>
<circle cx="176.842" cy="21.2578" r="1.5" transform="rotate(90 176.842 21.2578)" fill="#1F1F1F"/>
<circle cx="155.842" cy="21.2578" r="1.5" transform="rotate(90 155.842 21.2578)" fill="#1F1F1F"/>
<circle cx="134.842" cy="21.2578" r="1.5" transform="rotate(90 134.842 21.2578)" fill="#1F1F1F"/>
<circle cx="127.842" cy="42.2578" r="1.5" fill="#1F1F1F"/>
<circle cx="169.842" cy="21.2578" r="1.5" transform="rotate(90 169.842 21.2578)" fill="#1F1F1F"/>
<circle cx="148.842" cy="21.2578" r="1.5" transform="rotate(90 148.842 21.2578)" fill="#1F1F1F"/>
<circle cx="127.842" cy="28.2578" r="1.5" fill="#1F1F1F"/>
<circle cx="127.842" cy="21.2578" r="1.5" transform="rotate(90 127.842 21.2578)" fill="#1F1F1F"/>
<circle cx="162.842" cy="21.2578" r="1.5" transform="rotate(90 162.842 21.2578)" fill="#1F1F1F"/>
<circle cx="141.842" cy="21.2578" r="1.5" transform="rotate(90 141.842 21.2578)" fill="#1F1F1F"/>
<circle cx="127.842" cy="35.2578" r="1.5" fill="#1F1F1F"/>
</svg>
